<?xml version="1.0" standalone="no"?>
<!DOCTYPE svg PUBLIC "-//W3C//DTD SVG 20010904//EN"
 "http://www.w3.org/TR/2001/REC-SVG-20010904/DTD/svg10.dtd">
<svg version="1.0" xmlns="http://www.w3.org/2000/svg"
 width="1114.000000pt" height="1114.000000pt" viewBox="0 0 1114.000000 1114.000000"
 preserveAspectRatio="xMidYMid meet">

<g transform="translate(0.000000,1114.000000) scale(0.100000,-0.100000)"
fill="#000000" stroke="none">
<path d="M7360 10215 l0 -75 -1840 0 -1840 0 0 -1270 0 -1270 -255 0 c-163 0
-255 -4 -255 -10 0 -7 -242 -10 -705 -10 l-705 0 0 -385 0 -384 -142 -84 c-79
-46 -217 -126 -308 -179 -91 -53 -313 -182 -494 -288 -181 -105 -335 -194
-342 -197 -12 -4 -14 51 -14 331 l0 336 -230 0 -230 0 0 -1355 0 -1355 229 0
230 0 3 32 c3 30 6 24 33 -47 16 -44 30 -84 32 -90 1 -5 27 -75 58 -154 30
-80 57 -153 61 -163 5 -16 -2 -18 -75 -18 l-81 0 0 -205 0 -205 159 0 c157 0
160 0 166 -22 7 -24 50 -141 110 -300 l35 -93 0 -882 0 -883 1360 0 1360 0 0
-70 0 -70 1760 0 1760 0 0 1101 0 1101 61 59 c34 32 70 59 80 59 16 0 19 8 19
50 0 38 4 50 15 50 13 0 15 26 15 170 0 144 -2 170 -15 170 -13 0 -15 32 -15
230 l0 230 1600 0 1600 0 0 1330 0 1330 190 0 190 0 0 425 0 425 50 0 50 0 0
115 c0 112 1 116 39 197 58 127 61 135 61 196 0 68 -11 82 -63 82 l-40 0 4
138 c1 75 2 552 1 1060 l-2 922 -1840 0 -1840 0 0 -75z m1020 -302 c82 -20
206 -72 270 -113 61 -39 137 -120 146 -156 34 -133 -214 -161 -481 -54 -146
58 -275 161 -290 231 -12 51 29 94 105 110 48 11 171 2 250 -18z m1860 -424
c0 -357 -3 -449 -12 -443 -7 4 -40 26 -73 49 -53 36 -204 140 -695 475 -69 47
-165 112 -213 145 -49 33 -143 97 -209 143 l-121 82 661 0 662 0 0 -451z
m-3160 160 c170 -39 368 -159 416 -251 34 -65 6 -124 -74 -155 -67 -26 -220
-23 -332 6 -170 44 -343 147 -394 234 -93 157 86 234 384 166z m-210 -756
c102 -77 325 -247 495 -377 171 -130 348 -265 395 -301 47 -36 216 -164 375
-286 191 -146 314 -233 360 -255 89 -41 214 -68 279 -59 39 5 1430 455 1459
472 4 3 6 -41 5 -98 l-3 -102 -260 -89 c-143 -50 -408 -141 -590 -203 -474
-162 -496 -170 -542 -193 -58 -30 -167 -143 -213 -222 -21 -36 -58 -114 -81
-175 -23 -60 -50 -132 -61 -160 -11 -27 -23 -61 -27 -75 -5 -14 -18 -50 -31
-80 -12 -30 -28 -71 -35 -90 -7 -19 -24 -64 -38 -100 -38 -98 -96 -251 -188
-492 l-82 -218 -104 0 c-75 0 -102 3 -97 11 4 7 17 39 29 73 24 67 98 265 200
536 36 96 90 240 120 320 30 80 77 206 105 280 28 74 56 161 61 193 12 74 -3
161 -42 244 -42 88 -43 89 -464 412 -226 174 -511 394 -550 425 -16 13 -102
79 -190 147 -88 67 -235 181 -327 251 l-168 129 0 121 c0 95 3 118 13 111 6
-6 95 -73 197 -150z m2863 63 c307 -59 585 -295 472 -400 -142 -132 -671 49
-767 261 -54 120 75 181 295 139z m-1208 -357 c44 -11 125 -42 180 -69 168
-81 262 -173 272 -265 7 -56 -11 -86 -70 -117 -37 -20 -56 -23 -157 -23 -141
1 -230 23 -375 95 -292 144 -355 351 -122 400 58 12 176 3 272 -21z m-1100
-1067 c283 -134 390 -625 178 -812 -174 -153 -443 0 -539 307 -23 71 -25 95
-22 195 3 99 7 121 31 173 72 154 206 206 352 137z m-3881 -235 c37 -25 42
-44 22 -82 -48 -89 -278 -203 -515 -256 -106 -23 -276 -26 -326 -5 -158 66
132 266 503 347 113 24 275 22 316 -4z m1576 -93 c73 -29 79 -74 18 -140 -131
-142 -534 -272 -775 -249 -201 19 -185 142 34 257 246 129 579 190 723 132z
m1589 -166 c1 -10 9 -50 20 -90 30 -118 51 -206 51 -212 0 -3 -27 -6 -60 -6
l-60 0 1 223 0 222 24 -60 c13 -33 24 -68 24 -77z m-3177 -251 c72 -30 74 -79
6 -146 -181 -182 -733 -323 -868 -223 -16 12 -26 31 -28 52 -7 67 149 182 343
253 217 80 445 107 547 64z m6088 -309 c81 -88 -71 -402 -279 -575 -292 -242
-398 -42 -160 302 144 209 368 348 439 273z m-7653 -103 c157 -65 -86 -264
-447 -366 -171 -48 -371 -52 -419 -8 -36 34 -28 73 27 128 175 175 662 318
839 246z m1574 -171 c19 -11 41 -32 49 -47 14 -25 13 -30 -9 -72 -59 -111
-315 -243 -585 -301 -39 -9 -120 -17 -181 -17 -132 -2 -196 16 -221 65 -14 27
-14 32 6 73 44 92 233 204 454 270 145 43 221 54 352 51 79 -2 109 -7 135 -22z
m949 -227 c-201 -134 -377 -252 -392 -261 l-28 -18 0 134 0 134 193 127 192
127 200 0 200 0 -365 -243z m1648 217 c247 -123 271 -627 41 -878 -187 -204
-431 -100 -495 211 -19 91 -14 233 11 328 41 153 133 282 237 334 78 39 134
41 206 5z m701 -176 l0 -203 -24 95 c-14 52 -27 109 -30 125 -3 17 -10 44 -15
60 -5 17 -14 51 -19 78 l-8 47 48 0 49 0 -1 -202z m-6249 -343 c47 -8 119 -19
160 -25 41 -5 167 -23 280 -40 113 -17 234 -35 270 -40 36 -5 142 -21 235 -35
94 -14 215 -32 270 -40 106 -15 276 -40 545 -81 475 -71 515 -76 580 -69 174
17 310 72 523 213 75 51 140 92 142 92 3 0 5 -61 5 -135 l0 -134 -74 -50 c-77
-52 -119 -98 -155 -168 -51 -101 -66 -250 -35 -353 9 -29 18 -61 20 -69 2 -9
45 -146 95 -306 50 -159 99 -317 109 -350 10 -33 23 -73 29 -88 7 -17 11 -105
11 -223 l0 -194 -63 0 -63 0 -48 148 c-72 225 -121 377 -154 482 -195 622
-188 604 -268 716 -45 64 -122 133 -184 164 -33 16 -124 33 -515 95 -88 14
-185 29 -215 35 -56 10 -739 119 -905 145 -49 8 -231 37 -403 64 -172 28 -315
51 -318 51 -2 0 -4 47 -4 105 0 122 -11 115 130 90z m4018 -576 c145 -72 219
-239 209 -469 -8 -187 -66 -332 -179 -447 -73 -74 -135 -105 -225 -111 -64 -4
-79 -1 -127 22 -215 105 -283 472 -141 762 113 231 295 327 463 243z m-3885
-251 c204 -109 401 -424 401 -643 0 -117 -46 -175 -139 -175 -216 0 -525 399
-525 678 0 88 30 148 85 173 35 16 113 1 178 -33z m936 -175 c132 -64 283
-235 362 -409 62 -136 77 -285 37 -364 -33 -63 -65 -83 -132 -83 -193 0 -468
290 -541 569 -21 81 -19 189 4 239 47 103 129 117 270 48z m964 -163 c87 -27
168 -83 261 -180 156 -164 245 -356 246 -531 0 -52 -6 -77 -27 -120 -37 -71
-74 -93 -159 -91 -94 1 -189 49 -297 152 -135 128 -217 258 -263 421 -60 208
4 362 152 368 12 1 51 -8 87 -19z m4046 -376 c64 -32 111 -93 143 -184 34 -95
33 -293 0 -400 -37 -117 -78 -189 -151 -261 -53 -53 -78 -70 -121 -83 -29 -9
-63 -16 -74 -16 -36 0 -121 46 -151 81 -191 227 -94 728 167 858 75 38 118 39
187 5z m-2743 -1221 c15 -49 62 -203 106 -343 44 -140 83 -268 88 -285 5 -16
58 -190 119 -385 61 -195 111 -358 111 -362 0 -5 -51 -8 -113 -8 l-113 0 -19
58 c-10 31 -20 62 -21 68 -1 6 -11 37 -22 70 -12 32 -51 154 -87 269 -36 116
-72 228 -80 250 -7 22 -32 101 -55 175 -23 74 -62 198 -87 275 -25 77 -51 160
-59 184 -8 25 -14 62 -14 83 l0 38 110 0 109 0 27 -87z m1271 72 c91 -27 164
-119 199 -248 21 -79 18 -238 -7 -333 -32 -125 -83 -218 -164 -300 -139 -139
-269 -158 -387 -55 -137 121 -169 394 -72 630 34 85 67 136 128 199 59 61 100
89 159 108 56 17 84 17 144 -1z m-3790 -88 c151 -77 318 -283 383 -473 63
-183 14 -315 -113 -300 -166 19 -408 275 -482 509 -42 132 -31 241 29 279 40
25 115 19 183 -15z m879 -233 c274 -92 557 -548 465 -751 -67 -147 -313 -63
-496 170 -149 188 -221 410 -167 517 21 43 75 80 117 80 17 0 54 -7 81 -16z
m1026 -281 c241 -75 526 -481 493 -703 -17 -111 -70 -155 -176 -148 -247 17
-569 399 -573 678 0 61 4 83 22 116 46 80 111 96 234 57z m-2030 -465 c37 -62
118 -150 173 -186 25 -17 131 -57 252 -97 114 -37 240 -78 278 -91 l70 -23
-442 -1 -443 0 0 328 1 327 42 -105 c23 -58 54 -126 69 -152z"/>
</g>
</svg>
